<?xml version="1.0" encoding="utf-8"?>
<!-- Svg Vector Icons : http://www.onlinewebfonts.com/icon -->
<!DOCTYPE svg PUBLIC "-//W3C//DTD SVG 1.1//EN" "http://www.w3.org/Graphics/SVG/1.1/DTD/svg11.dtd">
<svg version="1.1" xmlns="http://www.w3.org/2000/svg" xmlns:xlink="http://www.w3.org/1999/xlink" x="0px" y="0px" viewBox="0 0 1000 1000" enable-background="new 0 0 1000 1000" xml:space="preserve">
<metadata> Svg Vector Icons : http://www.onlinewebfonts.com/icon </metadata>
<g><path d="M936.7,100H63.3C33.9,100,10,123.9,10,153.3v693.3c0,29.4,23.9,53.3,53.3,53.3h873.3c29.4,0,53.3-23.9,53.3-53.3V153.3C990,123.9,966.1,100,936.7,100z M170,800H70V665h100V800z M170,567.5H70v-135h100V567.5z M170,335H70V200h100V335z M768.3,793.3H231.7V206.7h536.7V793.3z M930,800H830V665h100V800z M930,567.5H830v-135h100V567.5z M930,335H830V200h100V335z"/></g>
</svg>